HIERARCHY
ROOT Hips
{
	OFFSET 0.000000 0.000000 0.000000 
	CHANNELS 6 Xposition Yposition Zposition Yrotation Zrotation Xrotation 
	JOINT Lumbar
	{
		OFFSET 0.000000 0.000000 0.000000 
		CHANNELS 3 Zrotation Xrotation Yrotation
		JOINT Neck
		{
			OFFSET 0.000000 0.445665 0.000000 
			CHANNELS 3 Zrotation Xrotation Yrotation
			End Site
			{
				OFFSET 0.000000 0.227535 0.000000 
			}
		}
		JOINT RightShoulder
		{
			OFFSET 0.019635 0.377685 0.194865 
			CHANNELS 3 Zrotation Xrotation Yrotation
			JOINT RightElbow
			{
				OFFSET 0.000000 -0.243375 0.000000 
				CHANNELS 2 Zrotation Yrotation
				JOINT RightWrist
				{
					OFFSET 0.000000 -0.264825 0.000000 
					CHANNELS 2 Zrotation Xrotation
					End Site
					{
						OFFSET 0.006600 -0.176220 0.000990 
					}
				}
			}
		}
		JOINT LeftShoulder
		{
			OFFSET 0.019635 0.377685 -0.194865 
			CHANNELS 3 Zrotation Xrotation Yrotation
			JOINT LeftElbow
			{
				OFFSET 0.000000 -0.243375 0.000000 
				CHANNELS 2 Zrotation Yrotation
				JOINT LeftWrist
				{
					OFFSET 0.000000 -0.264825 0.000000 
					CHANNELS 2 Zrotation Xrotation
					End Site
					{
						OFFSET 0.006600 -0.176220 -0.000990 
					}
				}
			}
		}
	}
	JOINT RightHip
	{
		OFFSET 0.052140 -0.069960 0.075570 
		CHANNELS 3 Zrotation Xrotation Yrotation
		JOINT RightKnee
		{
			OFFSET 0.000000 -0.402270 0.000000 
			CHANNELS 1 Zrotation
			JOINT RightAnkle
			{
				OFFSET 0.000000 -0.404085 0.000000 
				CHANNELS 3 Zrotation Xrotation Yrotation
				End Site
				{
					OFFSET 0.204105 -0.089430 0.008415 
				}
			}
		}
	}
	JOINT LeftHip
	{
		OFFSET 0.052140 -0.069960 -0.075570 
		CHANNELS 3 Zrotation Xrotation Yrotation
		JOINT LeftKnee
		{
			OFFSET 0.000000 -0.402270 0.000000 
			CHANNELS 1 Zrotation
			JOINT LeftAnkle
			{
				OFFSET 0.000000 -0.404085 0.000000 
				CHANNELS 3 Zrotation Xrotation Yrotation
				End Site
				{
					OFFSET 0.204105 -0.089430 -0.008415 
				}
			}
		}
	}
}
MOTION
Frames: 32
Frame Time: 0.02
0 0.95578 -0 176.18133 0 -4.15067 3.4191 3.66511 -0.69286 -37.48822 2.67777 1.73409 -21.26686 -60.73187 -84.66452 25.72512 55.20209 -24.86957 0.40575 -6.76991 58.96933 90.01161 20.4907 -76.02187 -22.85859 3.59038 -3.51754 4.92202 -4.58546 -7.70823 0.79373 -4.91132 -10.53658 -3.1821 6.26929 7.82558 -6.46514 5.85102 5.73324 8.10003
-0.00016 0.9559 -0.00011 176.03973 0 -4.18132 3.22862 3.57076 -1.15101 -37.97029 2.87171 2.37531 -22.8017 -60.3632 -84.40959 24.94157 53.76693 -24.86499 0.66172 -7.62935 57.34304 90.01162 20.3142 -76.04652 -22.94174 3.47708 -3.52532 4.94782 -4.50365 -7.6697 0.73352 -4.89373 -10.49893 -3.23644 6.28923 7.87508 -6.42671 5.80962 5.75057 8.18809
-0.00033 0.95602 -0.00021 175.89874 0 -4.21173 3.03907 3.47738 -1.60521 -38.45034 3.06396 3.01117 -24.32354 -59.9954 -84.16128 24.16017 52.34146 -24.8595 0.91541 -8.48213 55.72581 90.01163 20.13575 -76.06602 -23.02401 3.36387 -3.53309 4.97329 -4.42231 -7.63126 0.67353 -4.87618 -10.46139 -3.29048 6.30888 7.92459 -6.38851 5.7684 5.76778 8.27551
-0.00049 0.95614 -0.00031 175.75892 0 -4.24161 2.85103 3.38673 -2.04856 -38.92539 3.25181 3.63242 -25.81127 -59.62665 -83.93721 23.37854 50.93924 -24.85004 1.16332 -9.32202 54.12714 90.01164 19.94649 -76.06444 -23.10439 3.24826 -3.54112 4.9979 -4.34176 -7.59252 0.61358 -4.85876 -10.4242 -3.344 6.32771 7.97441 -6.35078 5.72738 5.78459 8.36125
-0.00066 0.95626 -0.00045 175.61307 0 -4.27445 2.65455 3.28135 -2.54999 -39.42492 3.46353 4.33174 -27.48325 -59.26191 -83.58508 22.59668 49.412 -24.86127 1.44285 -10.23676 52.42797 90.01166 19.81293 -76.17352 -23.19577 3.14339 -3.54805 5.02728 -4.25668 -7.55499 0.55311 -4.8408 -10.3855 -3.40046 6.35106 8.02232 -6.31046 5.68514 5.80342 8.45589
-0.00082 0.95638 -0.00049 175.48002 0 -4.30092 2.47644 3.20739 -2.92768 -39.87353 3.62415 4.86478 -28.76144 -58.88976 -83.50389 21.81708 48.15201 -24.82897 1.65456 -10.98781 50.94455 90.01167 19.56275 -76.04916 -23.26312 3.01722 -3.55712 5.04639 -4.18151 -7.5152 0.49397 -4.82393 -10.34977 -3.45053 6.36471 8.07441 -6.27575 5.64565 5.81801 8.5316
-0.00095 0.9565 -0.00027 175.38053 0 -4.31047 2.34343 3.21988 -2.96493 -40.17835 3.64647 4.94055 -28.96665 -58.4805 -84.1982 21.01383 47.61158 -24.66915 1.68381 -11.32717 50.02538 90.01167 18.96335 -75.24897 -23.26921 2.81517 -3.57423 5.038 -4.13025 -7.46578 0.43541 -4.81024 -10.32403 -3.48451 6.35209 8.13843 -6.25545 5.61179 5.82041 8.55531
-0.00107 0.95661 5e-05 175.29417 0 -4.3135 2.22998 3.26413 -2.87704 -40.43311 3.61677 4.84825 -28.77096 -58.06675 -85.16143 20.21763 47.34413 -24.46656 1.64395 -11.4932 49.32919 90.01167 18.25089 -74.21957 -23.25006 2.59434 -3.59315 5.0191 -4.08942 -7.41461 0.37868 -4.79764 -10.30107 -3.5118 6.32959 8.20664 -6.24101 5.58105 5.81862 8.55994
-0.00118 0.95672 0.00032 175.20286 0 -4.31907 2.11091 3.29412 -2.84564 -40.71266 3.609 4.83156 -28.7506 -57.66484 -85.98525 19.43644 46.96268 -24.28807 1.63234 -11.71396 48.54991 90.01167 17.60666 -73.3122 -23.23926 2.39321 -3.60988 5.00442 -4.04618 -7.36643 0.32305 -4.78439 -10.2755 -3.54119 6.31124 8.27282 -6.22458 5.55011 5.81904 8.57306
-0.00133 0.95684 0.0006 175.10734 0 -4.32636 1.9775 3.32352 -2.81597 -40.98178 3.60823 4.81778 -28.76283 -57.22 -86.88306 18.57785 46.53733 -24.08988 1.63318 -12.04033 47.69221 90.01167 16.89002 -72.32286 -23.24189 2.14576 -3.63234 4.99198 -3.99373 -7.30914 0.25931 -4.77168 -10.25508 -3.57454 6.29427 8.33969 -6.20533 5.51397 5.81813 8.58666
-0.00141 0.95694 0.0009 175.0236 0 -4.32858 1.87928 3.36152 -2.75281 -41.26298 3.58078 4.75843 -28.60731 -56.86556 -87.68878 17.88295 46.27021 -23.9226 1.59278 -12.10029 47.05277 90.01166 16.29905 -71.45815 -23.21021 1.98932 -3.64334 4.97252 -3.96218 -7.27025 0.21283 -4.75824 -10.22527 -3.59805 6.27217 8.40589 -6.19335 5.48948 5.81905 8.59506
-0.00132 0.95696 0.00128 174.97006 0 -4.31794 1.86757 3.417 -2.62941 -41.57143 3.49021 4.61106 -28.12531 -56.74418 -88.19016 17.63112 46.35624 -23.85087 1.44562 -11.51085 46.94391 90.01165 16.06803 -70.92063 -23.09258 2.09804 -3.62175 4.93487 -3.99238 -7.28384 0.21417 -4.74126 -10.16297 -3.59595 6.23748 8.47122 -6.19984 5.49565 5.82556 8.59098
-0.00117 0.95696 0.00168 174.92778 0 -4.30253 1.89172 3.47976 -2.47638 -41.89767 3.37499 4.42434 -27.48012 -56.71734 -88.58647 17.54514 46.59539 -23.81177 1.261 -10.65024 47.05024 90.01162 15.97015 -70.52903 -22.94058 2.29763 -3.58862 4.89076 -4.0421 -7.31584 0.23276 -4.72373 -10.09215 -3.58414 6.19815 8.53537 -6.21353 5.51357 5.83414 8.58279
-0.00104 0.95696 0.00207 174.87976 0 -4.2896 1.90323 3.53823 -2.33579 -42.22721 3.27247 4.25769 -26.88562 -56.6586 -89.02077 17.38793 46.77538 -23.75795 1.10013 -9.88615 47.0695 90.01162 15.82087 -70.11985 -22.80292 2.44911 -3.56119 4.85048 -4.07842 -7.33852 0.24301 -4.70725 -10.02921 -3.57686 6.16148 8.59872 -6.22399 5.52663 5.84212 8.57844
-0.00092 0.95697 0.00248 174.83474 0 -4.27509 1.8998 3.60201 -2.19498 -42.50504 3.1618 4.0756 -26.38039 -56.55243 -89.50637 17.21339 46.92026 -23.70225 0.90906 -9.23236 47.05125 90.0116 15.62902 -69.50121 -22.67079 2.62724 -3.53211 4.80602 -4.13387 -7.3649 0.25527 -4.68743 -9.94981 -3.56901 6.12206 8.66777 -6.23427 5.53783 5.84855 8.56543
-0.00077 0.95696 0.00284 174.78606 0 -4.26286 1.93597 3.65596 -2.04947 -42.89784 3.06294 3.91894 -25.65048 -56.56827 -89.85575 17.11435 47.17183 -23.65866 0.77211 -8.28224 47.15933 90.01154 15.55917 -69.35112 -22.51805 2.77352 -3.50345 4.76893 -4.15441 -7.38831 0.26763 -4.67444 -9.9022 -3.55993 6.08751 8.72473 -6.24681 5.55558 5.85872 8.56933
-0.0006 0.95689 0.00306 174.72392 0 -4.25769 2.07077 3.68168 -1.89664 -43.58342 3.00308 3.83945 -24.38558 -56.89155 -89.86221 17.1831 47.67404 -23.64126 0.80091 -6.61888 47.56259 90.01168 15.7919 -70.50814 -22.32761 2.79356 -3.4808 4.75338 -4.07024 -7.39599 0.27415 -4.68026 -9.9484 -3.55164 6.0666 8.74737 -6.26161 5.58938 5.87915 8.62438
-0.00041 0.9568 0.00322 174.65784 0 -4.25508 2.24441 3.69696 -1.74108 -44.38801 2.95622 3.78828 -22.89336 -57.3353 -89.7332 17.32252 48.2788 -23.63467 0.88439 -4.66041 48.08448 90.01146 16.14351 -72.12464 -22.11576 2.78113 -3.4586 4.7456 -3.95092 -7.4006 0.28049 -4.69298 -10.02623 -3.54216 6.05098 8.758 -6.27877 5.62923 5.90323 8.69609
-0.00022 0.95672 0.0034 174.59377 0 -4.25161 2.40152 3.71641 -1.58839 -45.15188 2.90334 3.72676 -21.47782 -57.72841 -89.65898 17.42913 48.8387 -23.62331 0.9386 -2.81242 48.55183 90.01157 16.44264 -73.4986 -21.90671 2.79464 -3.43483 4.73455 -3.84995 -7.40864 0.28818 -4.70265 -10.0869 -3.5321 6.03363 8.77506 -6.2963 5.66572 5.92542 8.75793
-6e-05 0.95664 0.00359 174.52879 0 -4.24671 2.55535 3.73857 -1.42753 -45.86043 2.8497 3.6531 -20.17013 -58.10854 -89.6068 17.54276 49.39416 -23.61384 1.01045 -1.05421 49.03015 90.01213 16.7406 -75.01596 -21.72555 2.76557 -3.4163 4.72214 -3.73951 -7.40879 0.29127 -4.71199 -10.15875 -3.52644 6.01329 8.78838 -6.30815 5.7051 5.94868 8.82912
0.00016 0.95656 0.00374 174.46512 0 -4.24541 2.72452 3.75248 -1.28367 -46.7116 2.80146 3.61202 -18.58425 -58.54173 -89.48175 17.65851 49.98445 -23.60083 1.05862 0.95698 49.5101 90.01019 17.06654 -76.34679 -21.48188 2.81444 -3.38724 4.71452 -3.64033 -7.42431 0.30351 -4.7236 -10.21531 -3.51145 6.00047 8.80614 -6.33213 5.73988 5.97053 8.88509
0.00052 0.95646 0.00377 174.40166 0 -4.25386 2.92812 3.74624 -1.18601 -47.93169 2.76173 3.65402 -16.30368 -59.1029 -89.15472 17.74401 50.61606 -23.59038 1.03224 3.59551 49.97176 90.01344 17.44831 -77.00558 -21.06951 3.1022 -3.32813 4.7182 -3.57969 -7.48387 0.3423 -4.74027 -10.2186 -3.47106 6.00735 8.84344 -6.39048 5.75906 5.98759 8.89279
0.00093 0.95637 0.00377 174.34041 0 -4.26579 3.1452 3.73203 -1.10602 -49.28931 2.72766 3.72791 -13.74985 -59.71052 -88.76528 17.83183 51.28335 -23.57311 0.97968 6.47508 50.42871 90.01157 17.85186 -77.46692 -20.59573 3.46617 -3.25863 4.72646 -3.53173 -7.55871 0.38996 -4.7589 -10.20604 -3.42136 6.02159 8.88486 -6.46065 5.77353 6.00308 8.88494
0.00132 0.95627 0.00378 174.281 0 -4.27587 3.35505 3.72131 -1.01902 -50.58241 2.69332 3.78753 -11.30859 -60.28955 -88.42789 17.93018 51.9538 -23.54888 0.9364 9.24455 50.88262 90.00467 18.24002 -78.04899 -20.1507 3.78441 -3.19452 4.73267 -3.47864 -7.62597 0.43265 -4.7763 -10.20297 -3.37591 6.03233 8.9215 -6.52443 5.79108 6.01929 8.88576
0.00171 0.95617 0.00378 174.20954 0 -4.28718 3.57147 3.71059 -0.9275 -51.89238 2.64995 3.84767 -8.90287 -60.90553 -87.98809 17.98248 52.54861 -23.56722 0.90559 12.03426 51.36264 90.03039 18.65639 -78.52235 -19.69997 4.14822 -3.12758 4.73902 -3.42164 -7.69599 0.47936 -4.79533 -10.19143 -3.33033 6.04392 8.96979 -6.5926 5.80511 6.03565 8.88077
0.00211 0.95608 0.00379 174.16365 0 -4.29671 3.77619 3.69833 -0.84976 -53.19309 2.62625 3.91334 -6.36804 -61.4526 -87.74554 18.12994 53.30498 -23.49552 0.84247 14.82591 51.78563 89.98498 19.01662 -79.16168 -19.24853 4.43587 -3.0641 4.74605 -3.37626 -7.76374 0.51973 -4.81138 -10.19325 -3.28281 6.0554 8.9952 -6.65441 5.82497 6.05119 8.88351
0.00254 0.95602 0.0038 174.18869 0 -4.30046 3.95127 3.68218 -0.80471 -54.47852 2.65814 3.99153 -3.48722 -61.80924 -88.0898 18.54184 54.52453 -23.17371 0.69123 17.64089 52.05082 89.76189 19.22413 -80.37007 -18.79584 4.49232 -3.01231 4.75402 -3.36012 -7.82301 0.54094 -4.81841 -10.23659 -3.23238 6.0649 8.95434 -6.69574 5.86482 6.06554 8.9152
0.00299 0.95596 0.00382 174.23923 0 -4.30229 4.1128 3.66513 -0.77309 -55.74084 2.70902 4.07312 -0.49823 -62.09216 -88.63049 19.04837 55.89994 -22.76225 0.50906 20.43331 52.25841 89.46456 19.37236 -81.7383 -18.34751 4.47004 -2.96445 4.76243 -3.35542 -7.87917 0.55535 -4.82238 -10.29356 -3.1803 6.07397 8.89078 -6.73024 5.91017 6.07897 8.95445
0.00344 0.95589 0.00383 174.27762 0 -4.30501 4.27642 3.64958 -0.73608 -56.98465 2.74948 4.14973 2.40396 -62.40097 -89.06415 19.51012 57.18677 -22.3936 0.34432 23.18449 52.49275 89.18923 19.54208 -82.9901 -17.90646 4.48545 -2.91507 4.77049 -3.34545 -7.93579 0.57252 -4.82793 -10.34369 -3.12887 6.08313 8.83899 -6.7679 5.95113 6.09232 8.9876
0.00387 0.95582 0.00384 174.31859 0 -4.3078 4.45771 3.62906 -0.69685 -58.35686 2.79795 4.24199 5.47745 -62.74389 -89.57007 19.98067 58.55052 -22.0152 0.16466 26.16296 52.72468 88.96155 19.7356 -84.42029 -17.42343 4.49554 -2.86418 4.77941 -3.33603 -7.99706 0.59139 -4.83279 -10.39625 -3.07749 6.09303 8.78109 -6.80582 5.99979 6.10771 9.03127
0.00432 0.95577 0.00387 174.36004 0 -4.30991 4.59877 3.61887 -0.665 -59.45303 2.83385 4.30204 8.21288 -62.99731 -89.97356 20.45385 59.78977 -21.63689 0.00883 28.65787 52.94785 88.61923 19.86522 -85.51928 -17.0306 4.49689 -2.81754 4.78652 -3.32822 -8.04757 0.60501 -4.83829 -10.44687 -3.02581 6.10114 8.7306 -6.84133 6.03394 6.11866 9.05525
0.00483 0.95574 0.00396 174.39819 0 -4.3107 4.63203 3.63688 -0.652 -59.80236 2.83299 4.27191 10.01619 -63.02346 -90.04114 20.92329 60.65517 -21.27233 -0.07181 29.83474 53.16148 87.95898 19.83208 -85.66547 -16.87847 4.49421 -2.78124 4.78886 -3.32022 -8.0703 0.60576 -4.84659 -10.49154 -2.97291 6.10474 8.70501 -6.87282 6.02541 6.11742 9.02106
